STARTFONT 2.1
COMMENT $XConsortium: luIS14.bdf,v 1.7 94/04/02 15:59:51 gildea Exp $
COMMENT  (c) Copyright Bigelow & Holmes 1986, 1985. Lucida is a registered
COMMENT  trademark of Bigelow & Holmes. See LEGAL NOTICE file for terms 
COMMENT  of the license. 
COMMENT GRID 0014 0014 0200 0200
COMMENT  
COMMENT  Translation to ISO8859-2 by Cub Soft;  Petr.Kolar@vslib.cz
COMMENT  
FONT -B&H-Lucida-Medium-I-Normal-Sans-14-140-75-75-P-82-ISO8859-2
SIZE 14 72 72
FONTBOUNDINGBOX 16 15 -1 -2
STARTPROPERTIES 20
COMMENT Begin LogicalFontDescription
FONTNAME_REGISTRY ""
FOUNDRY "B&H"
FAMILY_NAME "Lucida"
WEIGHT_NAME "Medium"
SLANT "I"
SETWIDTH_NAME "Normal"
ADD_STYLE_NAME "Sans"
PIXEL_SIZE 14
POINT_SIZE 140
RESOLUTION_X 75
RESOLUTION_Y 75
SPACING "P"
AVERAGE_WIDTH 82
CHARSET_REGISTRY "ISO8859"
CHARSET_ENCODING "2"
COMMENT END LogicalFontDescription
FONT_ASCENT 13
FONT_DESCENT 2
DEFAULT_CHAR 0
COPYRIGHT "Copyright Bigelow & Holmes 1986, 1985., Copyright 1996 Cub Soft"
FACE_NAME "Lucida Sans Italic"
ENDPROPERTIES
CHARS 191
STARTCHAR space
ENCODING 32
SWIDTH 316 0
DWIDTH 4 0
BBX 1 1 0 0
BITMAP
00
ENDCHAR
STARTCHAR exclam
ENCODING 33
SWIDTH 193 0
DWIDTH 4 0
BBX 2 10 1 0
BITMAP
40
40
40
40
80
80
80
00
80
80
ENDCHAR
STARTCHAR quotedbl
ENCODING 34
SWIDTH 361 0
DWIDTH 5 0
BBX 3 4 1 7
BITMAP
a0
a0
a0
a0
ENDCHAR
STARTCHAR numbersign
ENCODING 35
SWIDTH 633 0
DWIDTH 9 0
BBX 8 10 1 0
BITMAP
12
12
12
7f
24
24
fe
48
48
48
ENDCHAR
STARTCHAR dollar
ENCODING 36
SWIDTH 633 0
DWIDTH 9 0
BBX 7 12 1 -1
BITMAP
08
3c
4a
48
48
30
18
24
24
a4
78
20
ENDCHAR
STARTCHAR percent
ENCODING 37
SWIDTH 741 0
DWIDTH 11 0
BBX 9 10 1 0
BITMAP
6080
9100
9200
6400
0800
0800
1300
2480
4480
8300
ENDCHAR
STARTCHAR ampersand
ENCODING 38
SWIDTH 701 0
DWIDTH 10 0
BBX 9 10 1 0
BITMAP
1e00
2100
2100
1600
2880
4880
8500
8200
8600
7900
ENDCHAR
STARTCHAR apostrophe
ENCODING 39
SWIDTH 217 0
DWIDTH 3 0
BBX 3 4 1 7
BITMAP
20
20
40
80
ENDCHAR
STARTCHAR parenleft
ENCODING 40
SWIDTH 325 0
DWIDTH 5 0
BBX 5 12 1 -1
BITMAP
18
20
40
40
80
80
80
80
80
80
40
30
ENDCHAR
STARTCHAR parenright
ENCODING 41
SWIDTH 325 0
DWIDTH 5 0
BBX 5 12 -1 -1
BITMAP
60
10
08
08
08
08
08
08
10
10
20
c0
ENDCHAR
STARTCHAR asterisk
ENCODING 42
SWIDTH 470 0
DWIDTH 7 0
BBX 6 6 1 4
BITMAP
10
54
28
50
a8
20
ENDCHAR
STARTCHAR plus
ENCODING 43
SWIDTH 633 0
DWIDTH 9 0
BBX 7 7 1 1
BITMAP
08
08
10
fe
10
20
20
ENDCHAR
STARTCHAR comma
ENCODING 44
SWIDTH 316 0
DWIDTH 3 0
BBX 3 4 -1 -2
BITMAP
20
20
40
80
ENDCHAR
STARTCHAR minus
ENCODING 45
SWIDTH 633 0
DWIDTH 9 0
BBX 7 1 1 4
BITMAP
fe
ENDCHAR
STARTCHAR period
ENCODING 46
SWIDTH 316 0
DWIDTH 3 0
BBX 1 2 1 0
BITMAP
80
80
ENDCHAR
STARTCHAR slash
ENCODING 47
SWIDTH 482 0
DWIDTH 7 0
BBX 8 12 0 -1
BITMAP
01
02
02
04
08
08
10
10
20
40
40
80
ENDCHAR
STARTCHAR zero
ENCODING 48
SWIDTH 633 0
DWIDTH 9 0
BBX 7 10 1 0
BITMAP
1c
22
42
42
42
84
84
84
88
70
ENDCHAR
STARTCHAR one
ENCODING 49
SWIDTH 633 0
DWIDTH 9 0
BBX 3 10 3 0
BITMAP
20
e0
20
20
20
40
40
40
40
40
ENDCHAR
STARTCHAR two
ENCODING 50
SWIDTH 633 0
DWIDTH 9 0
BBX 7 10 1 0
BITMAP
3c
42
02
02
04
18
20
40
80
fc
ENDCHAR
STARTCHAR three
ENCODING 51
SWIDTH 633 0
DWIDTH 9 0
BBX 7 10 1 0
BITMAP
3c
42
02
04
38
04
04
04
88
70
ENDCHAR
STARTCHAR four
ENCODING 52
SWIDTH 633 0
DWIDTH 9 0
BBX 7 10 1 0
BITMAP
0c
14
24
44
44
88
fe
08
08
08
ENDCHAR
STARTCHAR five
ENCODING 53
SWIDTH 633 0
DWIDTH 9 0
BBX 7 10 1 0
BITMAP
3e
20
20
40
78
04
04
04
88
70
ENDCHAR
STARTCHAR six
ENCODING 54
SWIDTH 633 0
DWIDTH 9 0
BBX 7 10 1 0
BITMAP
1c
22
40
40
78
84
84
84
88
70
ENDCHAR
STARTCHAR seven
ENCODING 55
SWIDTH 633 0
DWIDTH 9 0
BBX 6 10 2 0
BITMAP
fc
04
04
08
10
20
40
40
80
80
ENDCHAR
STARTCHAR eight
ENCODING 56
SWIDTH 633 0
DWIDTH 9 0
BBX 7 10 1 0
BITMAP
3c
42
42
44
38
44
84
84
84
78
ENDCHAR
STARTCHAR nine
ENCODING 57
SWIDTH 633 0
DWIDTH 9 0
BBX 7 10 1 0
BITMAP
1c
22
42
42
42
3c
04
04
88
70
ENDCHAR
STARTCHAR colon
ENCODING 58
SWIDTH 316 0
DWIDTH 3 0
BBX 2 7 1 0
BITMAP
40
40
00
00
00
80
80
ENDCHAR
STARTCHAR semicolon
ENCODING 59
SWIDTH 316 0
DWIDTH 3 0
BBX 4 9 -1 -2
BITMAP
10
10
00
00
00
20
20
40
80
ENDCHAR
STARTCHAR less
ENCODING 60
SWIDTH 633 0
DWIDTH 9 0
BBX 7 7 1 1
BITMAP
06
18
60
80
40
20
10
ENDCHAR
STARTCHAR equal
ENCODING 61
SWIDTH 633 0
DWIDTH 9 0
BBX 7 3 1 3
BITMAP
7e
00
fc
ENDCHAR
STARTCHAR greater
ENCODING 62
SWIDTH 633 0
DWIDTH 9 0
BBX 7 7 1 1
BITMAP
10
08
04
02
0c
30
c0
ENDCHAR
STARTCHAR question
ENCODING 63
SWIDTH 464 0
DWIDTH 7 0
BBX 5 10 2 0
BITMAP
70
88
08
08
30
40
80
00
80
80
ENDCHAR
STARTCHAR at
ENCODING 64
SWIDTH 858 0
DWIDTH 12 0
BBX 10 10 1 0
BITMAP
0f00
3080
4040
43c0
8440
8880
8980
8ec0
4000
3f00
ENDCHAR
STARTCHAR A
ENCODING 65
SWIDTH 687 0
DWIDTH 10 0
BBX 7 10 1 0
BITMAP
06
0a
12
12
22
22
7e
42
82
82
ENDCHAR
STARTCHAR B
ENCODING 66
SWIDTH 593 0
DWIDTH 9 0
BBX 7 10 1 0
BITMAP
7c
42
42
44
7c
82
82
82
84
f8
ENDCHAR
STARTCHAR C
ENCODING 67
SWIDTH 679 0
DWIDTH 10 0
BBX 9 10 1 0
BITMAP
0f00
3080
4000
4000
8000
8000
8000
8000
8200
7c00
ENDCHAR
STARTCHAR D
ENCODING 68
SWIDTH 743 0
DWIDTH 11 0
BBX 9 10 1 0
BITMAP
7e00
4100
4080
4080
4080
8080
8100
8100
8200
fc00
ENDCHAR
STARTCHAR E
ENCODING 69
SWIDTH 547 0
DWIDTH 8 0
BBX 7 10 1 0
BITMAP
7e
40
40
40
7c
80
80
80
80
fc
ENDCHAR
STARTCHAR F
ENCODING 70
SWIDTH 536 0
DWIDTH 8 0
BBX 7 10 1 0
BITMAP
7e
40
40
40
7c
80
80
80
80
80
ENDCHAR
STARTCHAR G
ENCODING 71
SWIDTH 702 0
DWIDTH 10 0
BBX 9 10 1 0
BITMAP
0f00
3080
4000
4000
8000
8100
8100
8200
8200
7e00
ENDCHAR
STARTCHAR H
ENCODING 72
SWIDTH 735 0
DWIDTH 10 0
BBX 8 10 1 0
BITMAP
41
41
41
41
7f
82
82
82
82
82
ENDCHAR
STARTCHAR I
ENCODING 73
SWIDTH 289 0
DWIDTH 4 0
BBX 2 10 1 0
BITMAP
40
40
40
40
40
80
80
80
80
80
ENDCHAR
STARTCHAR J
ENCODING 74
SWIDTH 408 0
DWIDTH 6 0
BBX 5 12 0 -2
BITMAP
08
08
08
08
08
10
10
10
10
20
20
c0
ENDCHAR
STARTCHAR K
ENCODING 75
SWIDTH 635 0
DWIDTH 9 0
BBX 8 10 1 0
BITMAP
41
42
44
48
70
90
88
84
82
83
ENDCHAR
STARTCHAR L
ENCODING 76
SWIDTH 545 0
DWIDTH 8 0
BBX 6 10 1 0
BITMAP
40
40
40
40
40
80
80
80
80
fc
ENDCHAR
STARTCHAR M
ENCODING 77
SWIDTH 828 0
DWIDTH 13 0
BBX 11 10 1 0
BITMAP
38e0
28a0
2920
4920
4620
4440
4440
8440
8040
8040
ENDCHAR
STARTCHAR N
ENCODING 78
SWIDTH 741 0
DWIDTH 11 0
BBX 9 10 1 0
BITMAP
6080
5080
5080
4880
4880
8900
8900
8500
8500
8300
ENDCHAR
STARTCHAR O
ENCODING 79
SWIDTH 777 0
DWIDTH 11 0
BBX 9 10 1 0
BITMAP
0f00
3080
4080
4080
8080
8080
8100
8100
8600
7800
ENDCHAR
STARTCHAR P
ENCODING 80
SWIDTH 575 0
DWIDTH 8 0
BBX 7 10 1 0
BITMAP
7c
42
42
42
44
f8
80
80
80
80
ENDCHAR
STARTCHAR Q
ENCODING 81
SWIDTH 777 0
DWIDTH 11 0
BBX 9 12 1 -2
BITMAP
0f00
3080
4080
4080
8080
8080
8100
8100
8600
7800
0400
0300
ENDCHAR
STARTCHAR R
ENCODING 82
SWIDTH 632 0
DWIDTH 9 0
BBX 7 10 1 0
BITMAP
7c
42
42
42
44
f8
88
84
84
86
ENDCHAR
STARTCHAR S
ENCODING 83
SWIDTH 553 0
DWIDTH 8 0
BBX 7 10 1 0
BITMAP
3c
42
40
20
10
08
04
04
84
78
ENDCHAR
STARTCHAR T
ENCODING 84
SWIDTH 623 0
DWIDTH 9 0
BBX 8 10 1 0
BITMAP
ff
10
10
10
10
20
20
20
20
20
ENDCHAR
STARTCHAR U
ENCODING 85
SWIDTH 693 0
DWIDTH 10 0
BBX 8 10 1 0
BITMAP
41
41
41
41
82
82
82
82
44
38
ENDCHAR
STARTCHAR V
ENCODING 86
SWIDTH 687 0
DWIDTH 10 0
BBX 8 10 2 0
BITMAP
81
81
82
82
84
48
48
50
60
60
ENDCHAR
STARTCHAR W
ENCODING 87
SWIDTH 886 0
DWIDTH 13 0
BBX 12 10 1 0
BITMAP
8010
8010
8410
8420
8a20
4a40
5280
5280
6300
6300
ENDCHAR
STARTCHAR X
ENCODING 88
SWIDTH 620 0
DWIDTH 9 0
BBX 8 10 1 0
BITMAP
41
41
22
24
18
18
24
44
82
82
ENDCHAR
STARTCHAR Y
ENCODING 89
SWIDTH 608 0
DWIDTH 9 0
BBX 7 10 2 0
BITMAP
82
82
84
88
90
60
40
40
40
40
ENDCHAR
STARTCHAR Z
ENCODING 90
SWIDTH 578 0
DWIDTH 8 0
BBX 8 10 0 0
BITMAP
3f
01
02
04
08
10
20
40
80
fe
ENDCHAR
STARTCHAR bracketleft
ENCODING 91
SWIDTH 325 0
DWIDTH 5 0
BBX 5 12 1 -1
BITMAP
38
20
20
20
40
40
40
40
80
80
80
e0
ENDCHAR
STARTCHAR backslash
ENCODING 92
SWIDTH 482 0
DWIDTH 7 0
BBX 3 12 2 -1
BITMAP
80
80
80
80
40
40
40
40
20
20
20
20
ENDCHAR
STARTCHAR bracketright
ENCODING 93
SWIDTH 325 0
DWIDTH 5 0
BBX 5 12 -1 -1
BITMAP
38
08
08
08
10
10
10
10
20
20
20
e0
ENDCHAR
STARTCHAR asciicircum
ENCODING 94
SWIDTH 633 0
DWIDTH 9 0
BBX 6 7 2 3
BITMAP
0c
14
24
24
44
84
84
ENDCHAR
STARTCHAR underscore
ENCODING 95
SWIDTH 500 0
DWIDTH 10 0
BBX 8 1 1 -1
BITMAP
ff
ENDCHAR
STARTCHAR grave
ENCODING 96
SWIDTH 572 0
DWIDTH 9 0
BBX 4 2 4 9
BITMAP
c0
30
ENDCHAR
STARTCHAR a
ENCODING 97
SWIDTH 608 0
DWIDTH 9 0
BBX 7 8 1 0
BITMAP
1e
22
42
42
84
8c
94
64
ENDCHAR
STARTCHAR b
ENCODING 98
SWIDTH 608 0
DWIDTH 9 0
BBX 7 11 1 0
BITMAP
20
20
20
4c
52
62
42
84
84
88
f0
ENDCHAR
STARTCHAR c
ENCODING 99
SWIDTH 503 0
DWIDTH 7 0
BBX 6 8 1 0
BITMAP
1c
20
40
40
80
80
88
70
ENDCHAR
STARTCHAR d
ENCODING 100
SWIDTH 608 0
DWIDTH 9 0
BBX 8 11 1 0
BITMAP
01
01
01
1e
22
42
42
84
8c
94
64
ENDCHAR
STARTCHAR e
ENCODING 101
SWIDTH 529 0
DWIDTH 7 0
BBX 6 8 1 0
BITMAP
18
24
44
48
f0
80
88
70
ENDCHAR
STARTCHAR f
ENCODING 102
SWIDTH 383 0
DWIDTH 6 0
BBX 6 13 1 -2
BITMAP
1c
20
20
f8
40
40
40
40
40
80
80
80
80
ENDCHAR
STARTCHAR g
ENCODING 103
SWIDTH 608 0
DWIDTH 9 0
BBX 8 10 0 -2
BITMAP
0f
11
21
21
46
4a
32
02
84
78
ENDCHAR
STARTCHAR h
ENCODING 104
SWIDTH 620 0
DWIDTH 9 0
BBX 7 11 1 0
BITMAP
20
20
20
4c
52
62
42
84
84
84
84
ENDCHAR
STARTCHAR i
ENCODING 105
SWIDTH 289 0
DWIDTH 4 0
BBX 3 11 1 0
BITMAP
20
40
00
40
40
40
40
80
80
80
80
ENDCHAR
STARTCHAR j
ENCODING 106
SWIDTH 325 0
DWIDTH 5 0
BBX 5 13 0 -2
BITMAP
08
10
00
10
10
10
10
20
20
20
20
20
c0
ENDCHAR
STARTCHAR k
ENCODING 107
SWIDTH 572 0
DWIDTH 8 0
BBX 7 11 1 0
BITMAP
20
20
20
22
44
48
70
90
88
84
86
ENDCHAR
STARTCHAR l
ENCODING 108
SWIDTH 289 0
DWIDTH 5 0
BBX 3 11 1 0
BITMAP
20
20
20
40
40
40
40
80
80
80
80
ENDCHAR
STARTCHAR m
ENCODING 109
SWIDTH 934 0
DWIDTH 14 0
BBX 12 8 1 0
BITMAP
4c60
5290
6310
4210
8420
8420
8420
8420
ENDCHAR
STARTCHAR n
ENCODING 110
SWIDTH 620 0
DWIDTH 9 0
BBX 7 8 1 0
BITMAP
4c
52
62
42
84
84
84
84
ENDCHAR
STARTCHAR o
ENCODING 111
SWIDTH 566 0
DWIDTH 9 0
BBX 7 8 1 0
BITMAP
1c
22
42
82
82
84
88
70
ENDCHAR
STARTCHAR p
ENCODING 112
SWIDTH 608 0
DWIDTH 9 0
BBX 8 10 0 -2
BITMAP
26
29
31
21
42
42
44
78
80
80
ENDCHAR
STARTCHAR q
ENCODING 113
SWIDTH 608 0
DWIDTH 9 0
BBX 7 10 1 -2
BITMAP
1e
22
42
42
84
8c
94
64
08
08
ENDCHAR
STARTCHAR r
ENCODING 114
SWIDTH 478 0
DWIDTH 7 0
BBX 6 8 1 0
BITMAP
4c
48
50
60
80
80
80
80
ENDCHAR
STARTCHAR s
ENCODING 115
SWIDTH 489 0
DWIDTH 7 0
BBX 6 8 1 0
BITMAP
3c
40
40
30
08
08
08
f0
ENDCHAR
STARTCHAR t
ENCODING 116
SWIDTH 383 0
DWIDTH 6 0
BBX 5 10 1 0
BITMAP
20
20
f8
40
40
40
80
80
80
70
ENDCHAR
STARTCHAR u
ENCODING 117
SWIDTH 620 0
DWIDTH 9 0
BBX 7 8 1 0
BITMAP
42
42
42
42
84
8c
94
64
ENDCHAR
STARTCHAR v
ENCODING 118
SWIDTH 545 0
DWIDTH 7 0
BBX 6 8 1 0
BITMAP
84
84
84
88
88
90
a0
c0
ENDCHAR
STARTCHAR w
ENCODING 119
SWIDTH 795 0
DWIDTH 11 0
BBX 10 8 1 0
BITMAP
8040
8840
8840
8880
9480
9480
a500
c600
ENDCHAR
STARTCHAR x
ENCODING 120
SWIDTH 541 0
DWIDTH 8 0
BBX 8 8 0 0
BITMAP
21
21
22
14
28
44
84
84
ENDCHAR
STARTCHAR y
ENCODING 121
SWIDTH 548 0
DWIDTH 7 0
BBX 8 10 -1 -2
BITMAP
21
21
21
22
22
24
28
30
20
c0
ENDCHAR
STARTCHAR z
ENCODING 122
SWIDTH 536 0
DWIDTH 7 0
BBX 7 8 0 0
BITMAP
7e
04
08
10
20
40
80
fc
ENDCHAR
STARTCHAR braceleft
ENCODING 123
SWIDTH 325 0
DWIDTH 5 0
BBX 6 12 0 -1
BITMAP
0c
10
20
20
20
10
60
30
40
80
80
60
ENDCHAR
STARTCHAR bar
ENCODING 124
SWIDTH 233 0
DWIDTH 4 0
BBX 3 12 1 -1
BITMAP
20
20
20
20
40
40
40
40
80
80
80
80
ENDCHAR
STARTCHAR braceright
ENCODING 125
SWIDTH 325 0
DWIDTH 5 0
BBX 6 12 -1 -1
BITMAP
18
04
04
08
10
20
18
20
10
10
20
c0
ENDCHAR
STARTCHAR asciitilde
ENCODING 126
SWIDTH 633 0
DWIDTH 9 0
BBX 7 3 1 3
BITMAP
32
54
98
ENDCHAR
STARTCHAR nobreakspace
ENCODING 160
SWIDTH 316 0
DWIDTH 4 0
BBX 1 1 0 0
BITMAP
00
ENDCHAR
STARTCHAR Aogonek
ENCODING 161
SWIDTH 687 0
DWIDTH 10 0
BBX 7 12 1 -2
BITMAP
06
0a
12
12
22
22
7e
42
82
82
20
18
ENDCHAR
STARTCHAR breve
ENCODING 162
SWIDTH 566 0
DWIDTH 9 0
BBX 5 2 3 9
BITMAP
88
70
ENDCHAR
STARTCHAR Lstroke
ENCODING 163
SWIDTH 545 0
DWIDTH 8 0
BBX 8 10 0 0
BITMAP
10
10
10
10
1e
f0
20
20
20
3f
ENDCHAR
STARTCHAR currency
ENCODING 164
SWIDTH 633 0
DWIDTH 9 0
BBX 9 9 0 0
BITMAP
4080
2100
1e00
1200
2200
2400
3c00
4200
8100
ENDCHAR
STARTCHAR Lcaron
ENCODING 165
SWIDTH 545 0
DWIDTH 8 0
BBX 6 11 1 0
BITMAP
04
44
48
50
40
40
80
80
80
80
fc
ENDCHAR
STARTCHAR Sacute
ENCODING 166
SWIDTH 553 0
DWIDTH 8 0
BBX 8 13 1 0
BITMAP
03
0c
00
3c
42
40
20
10
08
04
04
84
78
ENDCHAR
STARTCHAR section
ENCODING 167
SWIDTH 633 0
DWIDTH 9 0
BBX 8 11 1 -1
BITMAP
1e
21
20
38
44
42
22
1c
04
84
78
ENDCHAR
STARTCHAR diaeresis
ENCODING 168
SWIDTH 566 0
DWIDTH 9 0
BBX 4 2 4 9
BITMAP
90
90
ENDCHAR
STARTCHAR Scaron
ENCODING 169
SWIDTH 553 0
DWIDTH 8 0
BBX 7 13 1 0
BITMAP
12
0c
00
3c
42
40
20
10
08
04
04
84
78
ENDCHAR
STARTCHAR Scedilla
ENCODING 170
SWIDTH 553 0
DWIDTH 8 0
BBX 7 12 1 -2
BITMAP
3c
42
40
20
10
08
04
04
84
78
08
30
ENDCHAR
STARTCHAR Tcaron
ENCODING 171
SWIDTH 623 0
DWIDTH 9 0
BBX 8 13 1 0
BITMAP
12
0c
00
ff
10
10
10
10
20
20
20
20
20
ENDCHAR
STARTCHAR Zacute
ENCODING 172
SWIDTH 578 0
DWIDTH 8 0
BBX 9 13 0 0
BITMAP
0180
0600
0000
3f00
0100
0200
0400
0800
1000
2000
4000
8000
fe00
ENDCHAR
STARTCHAR hyphen
ENCODING 173
SWIDTH 313 0
DWIDTH 5 0
BBX 3 1 1 4
BITMAP
e0
ENDCHAR
STARTCHAR Zcaron
ENCODING 174
SWIDTH 578 0
DWIDTH 8 0
BBX 8 13 0 0
BITMAP
09
06
00
3f
01
02
04
08
10
20
40
80
fe
ENDCHAR
STARTCHAR Zabovedot
ENCODING 175
SWIDTH 578 0
DWIDTH 8 0
BBX 8 13 0 0
BITMAP
04
04
00
3f
01
02
04
08
10
20
40
80
fe
ENDCHAR
STARTCHAR degree
ENCODING 176
SWIDTH 269 0
DWIDTH 4 0
BBX 4 3 1 7
BITMAP
60
90
60
ENDCHAR
STARTCHAR aogonek
ENCODING 177
SWIDTH 608 0
DWIDTH 9 0
BBX 7 10 1 -2
BITMAP
1e
22
42
42
84
8c
94
64
20
18
ENDCHAR
STARTCHAR ogonek
ENCODING 178
SWIDTH 566 0
DWIDTH 9 0
BBX 3 2 4 -2
BITMAP
80
60
ENDCHAR
STARTCHAR lstroke
ENCODING 179
SWIDTH 289 0
DWIDTH 5 0
BBX 5 11 0 0
BITMAP
10
10
10
20
38
e0
20
40
40
40
40
ENDCHAR
STARTCHAR acute
ENCODING 180
SWIDTH 566 0
DWIDTH 9 0
BBX 4 2 4 9
BITMAP
30
c0
ENDCHAR
STARTCHAR lcaron
ENCODING 181
SWIDTH 642 0
DWIDTH 9 0
BBX 7 12 1 0
BITMAP
02
22
24
28
40
40
40
40
80
80
80
80
ENDCHAR
STARTCHAR sacute
ENCODING 182
SWIDTH 489 0
DWIDTH 7 0
BBX 7 11 1 0
BITMAP
06
18
00
3c
40
40
30
08
08
08
f0
ENDCHAR
STARTCHAR caron
ENCODING 183
SWIDTH 568 0
DWIDTH 9 0
BBX 4 2 4 9
BITMAP
90
60
ENDCHAR
STARTCHAR cedilla
ENCODING 184
SWIDTH 566 0
DWIDTH 9 0
BBX 3 2 2 -2
BITMAP
20
c0
ENDCHAR
STARTCHAR scaron
ENCODING 185
SWIDTH 489 0
DWIDTH 7 0
BBX 6 11 1 0
BITMAP
24
18
00
3c
40
40
30
08
08
08
f0
ENDCHAR
STARTCHAR scedilla
ENCODING 186
SWIDTH 489 0
DWIDTH 7 0
BBX 6 10 1 -2
BITMAP
3c
40
40
30
08
08
08
f0
10
60
ENDCHAR
STARTCHAR tcaron
ENCODING 187
SWIDTH 571 0
DWIDTH 8 0
BBX 7 13 1 0
BITMAP
02
02
04
28
20
f8
40
40
40
80
80
80
70
ENDCHAR
STARTCHAR zacute
ENCODING 188
SWIDTH 536 0
DWIDTH 7 0
BBX 7 11 0 0
BITMAP
06
18
00
7e
04
08
10
20
40
80
fc
ENDCHAR
STARTCHAR doubleacute
ENCODING 189
SWIDTH 566 0
DWIDTH 9 0
BBX 5 2 3 9
BITMAP
48
90
ENDCHAR
STARTCHAR zcaron
ENCODING 190
SWIDTH 536 0
DWIDTH 7 0
BBX 7 11 0 0
BITMAP
24
18
00
7e
04
08
10
20
40
80
fc
ENDCHAR
STARTCHAR zabovedot
ENCODING 191
SWIDTH 536 0
DWIDTH 7 0
BBX 7 11 0 0
BITMAP
10
10
00
7e
04
08
10
20
40
80
fc
ENDCHAR
STARTCHAR Racute
ENCODING 192
SWIDTH 632 0
DWIDTH 9 0
BBX 8 13 1 0
BITMAP
03
0c
00
7c
42
42
42
44
f8
88
84
84
86
ENDCHAR
STARTCHAR Aacute
ENCODING 193
SWIDTH 687 0
DWIDTH 10 0
BBX 9 13 1 0
BITMAP
0180
0600
0000
0600
0a00
1200
1200
2200
2200
7e00
4200
8200
8200
ENDCHAR
STARTCHAR Acircumflex
ENCODING 194
SWIDTH 687 0
DWIDTH 10 0
BBX 8 13 1 0
BITMAP
06
09
00
06
0a
12
12
22
22
7e
42
82
82
ENDCHAR
STARTCHAR Abreve
ENCODING 195
SWIDTH 687 0
DWIDTH 10 0
BBX 8 13 1 0
BITMAP
11
0e
00
06
0a
12
12
22
22
7e
42
82
82
ENDCHAR
STARTCHAR Adiaeresis
ENCODING 196
SWIDTH 687 0
DWIDTH 10 0
BBX 8 13 1 0
BITMAP
09
09
00
06
0a
12
12
22
22
7e
42
82
82
ENDCHAR
STARTCHAR Lacute
ENCODING 197
SWIDTH 545 0
DWIDTH 8 0
BBX 6 13 1 0
BITMAP
18
60
00
40
40
40
40
40
80
80
80
80
fc
ENDCHAR
STARTCHAR Cacute
ENCODING 198
SWIDTH 679 0
DWIDTH 10 0
BBX 9 13 1 0
BITMAP
0180
0600
0000
0f00
3080
4000
4000
8000
8000
8000
8000
8200
7c00
ENDCHAR
STARTCHAR Ccedilla
ENCODING 199
SWIDTH 679 0
DWIDTH 10 0
BBX 9 12 1 -2
BITMAP
0f00
3080
4000
4000
8000
8000
8000
8000
8200
7c00
1000
6000
ENDCHAR
STARTCHAR Ccaron
ENCODING 200
SWIDTH 679 0
DWIDTH 10 0
BBX 9 13 1 0
BITMAP
0900
0600
0000
0f00
3080
4000
4000
8000
8000
8000
8000
8200
7c00
ENDCHAR
STARTCHAR Eacute
ENCODING 201
SWIDTH 547 0
DWIDTH 8 0
BBX 7 13 1 0
BITMAP
06
18
00
7e
40
40
40
7c
80
80
80
80
fc
ENDCHAR
STARTCHAR Eogonek
ENCODING 202
SWIDTH 547 0
DWIDTH 8 0
BBX 7 12 1 -2
BITMAP
7e
40
40
40
7c
80
80
80
80
fc
20
18
ENDCHAR
STARTCHAR Ediaeresis
ENCODING 203
SWIDTH 547 0
DWIDTH 8 0
BBX 7 13 1 0
BITMAP
24
24
00
7e
40
40
40
7c
80
80
80
80
fc
ENDCHAR
STARTCHAR Ecaron
ENCODING 204
SWIDTH 547 0
DWIDTH 8 0
BBX 7 13 1 0
BITMAP
12
0c
00
7e
40
40
40
7c
80
80
80
80
fc
ENDCHAR
STARTCHAR Iacute
ENCODING 205
SWIDTH 289 0
DWIDTH 4 0
BBX 4 13 0 0
BITMAP
30
c0
00
20
20
20
20
20
40
40
40
40
40
ENDCHAR
STARTCHAR Icircumflex
ENCODING 206
SWIDTH 289 0
DWIDTH 4 0
BBX 3 13 1 0
BITMAP
40
a0
00
40
40
40
40
40
80
80
80
80
80
ENDCHAR
STARTCHAR Dcaron
ENCODING 207
SWIDTH 743 0
DWIDTH 11 0
BBX 9 13 1 0
BITMAP
1200
0c00
0000
7e00
4100
4080
4080
4080
8080
8100
8100
8200
fc00
ENDCHAR
STARTCHAR Dstroke
ENCODING 208
SWIDTH 743 0
DWIDTH 11 0
BBX 10 10 0 0
BITMAP
3f00
2080
2040
2040
f840
4040
4080
4080
4100
7e00
ENDCHAR
STARTCHAR Nacute
ENCODING 209
SWIDTH 741 0
DWIDTH 11 0
BBX 9 13 1 0
BITMAP
0180
0600
0000
6080
5080
5080
4880
4880
8900
8900
8500
8500
8300
ENDCHAR
STARTCHAR Ncaron
ENCODING 210
SWIDTH 741 0
DWIDTH 11 0
BBX 9 13 1 0
BITMAP
0900
0600
0000
6080
5080
5080
4880
4880
8900
8900
8500
8500
8300
ENDCHAR
STARTCHAR Oacute
ENCODING 211
SWIDTH 777 0
DWIDTH 11 0
BBX 9 13 1 0
BITMAP
0300
0c00
0000
0f00
3080
4080
4080
8080
8080
8100
8100
8600
7800
ENDCHAR
STARTCHAR Ocircumflex
ENCODING 212
SWIDTH 777 0
DWIDTH 11 0
BBX 9 13 1 0
BITMAP
0600
0900
0000
0f00
3080
4080
4080
8080
8080
8100
8100
8600
7800
ENDCHAR
STARTCHAR Odoubleacute
ENCODING 213
SWIDTH 777 0
DWIDTH 11 0
BBX 9 13 1 0
BITMAP
0480
0900
0000
0f00
3080
4080
4080
8080
8080
8100
8100
8600
7800
ENDCHAR
STARTCHAR Odiaeresis
ENCODING 214
SWIDTH 777 0
DWIDTH 11 0
BBX 9 13 1 0
BITMAP
0900
0900
0000
0f00
3080
4080
4080
8080
8080
8100
8100
8600
7800
ENDCHAR
STARTCHAR multiply
ENCODING 215
SWIDTH 633 0
DWIDTH 9 0
BBX 7 7 1 1
BITMAP
22
24
18
10
30
48
88
ENDCHAR
STARTCHAR Rcaron
ENCODING 216
SWIDTH 632 0
DWIDTH 9 0
BBX 7 13 1 0
BITMAP
12
0c
00
7c
42
42
42
44
f8
88
84
84
86
ENDCHAR
STARTCHAR Uring
ENCODING 217
SWIDTH 693 0
DWIDTH 10 0
BBX 8 14 1 0
BITMAP
0c
12
0c
00
41
41
41
41
82
82
82
82
44
38
ENDCHAR
STARTCHAR Uacute
ENCODING 218
SWIDTH 693 0
DWIDTH 10 0
BBX 8 13 1 0
BITMAP
06
18
00
41
41
41
41
82
82
82
82
44
38
ENDCHAR
STARTCHAR Udoubleacute
ENCODING 219
SWIDTH 693 0
DWIDTH 10 0
BBX 8 13 1 0
BITMAP
09
12
00
41
41
41
41
82
82
82
82
44
38
ENDCHAR
STARTCHAR Udiaeresis
ENCODING 220
SWIDTH 693 0
DWIDTH 10 0
BBX 8 13 1 0
BITMAP
12
12
00
41
41
41
41
82
82
82
82
44
38
ENDCHAR
STARTCHAR Yacute
ENCODING 221
SWIDTH 608 0
DWIDTH 9 0
BBX 7 13 2 0
BITMAP
0c
30
00
82
82
84
88
90
60
40
40
40
40
ENDCHAR
STARTCHAR Tcedilla
ENCODING 222
SWIDTH 623 0
DWIDTH 9 0
BBX 8 12 1 -2
BITMAP
ff
10
10
10
10
20
20
20
20
20
08
30
ENDCHAR
STARTCHAR ssharp
ENCODING 223
SWIDTH 595 0
DWIDTH 9 0
BBX 8 12 1 -1
BITMAP
0e
11
21
22
24
42
41
41
41
82
9c
80
ENDCHAR
STARTCHAR racute
ENCODING 224
SWIDTH 478 0
DWIDTH 7 0
BBX 7 11 1 0
BITMAP
06
18
00
4c
48
50
60
80
80
80
80
ENDCHAR
STARTCHAR aacute
ENCODING 225
SWIDTH 608 0
DWIDTH 9 0
BBX 7 11 1 0
BITMAP
06
18
00
1e
22
42
42
84
8c
94
64
ENDCHAR
STARTCHAR acircumflex
ENCODING 226
SWIDTH 608 0
DWIDTH 9 0
BBX 7 11 1 0
BITMAP
0c
12
00
1e
22
42
42
84
8c
94
64
ENDCHAR
STARTCHAR abreve
ENCODING 227
SWIDTH 608 0
DWIDTH 9 0
BBX 7 11 1 0
BITMAP
22
1c
00
1e
22
42
42
84
8c
94
64
ENDCHAR
STARTCHAR adiaeresis
ENCODING 228
SWIDTH 608 0
DWIDTH 9 0
BBX 7 11 1 0
BITMAP
12
12
00
1e
22
42
42
84
8c
94
64
ENDCHAR
STARTCHAR lacute
ENCODING 229
SWIDTH 289 0
DWIDTH 5 0
BBX 6 14 1 0
BITMAP
0c
30
00
20
20
20
40
40
40
40
80
80
80
80
ENDCHAR
STARTCHAR cacute
ENCODING 230
SWIDTH 503 0
DWIDTH 7 0
BBX 7 11 1 0
BITMAP
06
18
00
1c
20
40
40
80
80
88
70
ENDCHAR
STARTCHAR ccedilla
ENCODING 231
SWIDTH 503 0
DWIDTH 7 0
BBX 6 10 1 -2
BITMAP
1c
20
40
40
80
80
88
70
20
c0
ENDCHAR
STARTCHAR ccaron
ENCODING 232
SWIDTH 503 0
DWIDTH 7 0
BBX 6 11 1 0
BITMAP
24
18
00
1c
20
40
40
80
80
88
70
ENDCHAR
STARTCHAR eacute
ENCODING 233
SWIDTH 529 0
DWIDTH 7 0
BBX 6 11 1 0
BITMAP
0c
30
00
18
24
44
48
f0
80
88
70
ENDCHAR
STARTCHAR eogonek
ENCODING 234
SWIDTH 529 0
DWIDTH 7 0
BBX 6 10 1 -2
BITMAP
18
24
44
48
f0
80
88
70
40
30
ENDCHAR
STARTCHAR ediaeresis
ENCODING 235
SWIDTH 529 0
DWIDTH 7 0
BBX 6 11 1 0
BITMAP
24
24
00
18
24
44
48
f0
80
88
70
ENDCHAR
STARTCHAR ecaron
ENCODING 236
SWIDTH 529 0
DWIDTH 7 0
BBX 6 11 1 0
BITMAP
24
18
00
18
24
44
48
f0
80
88
70
ENDCHAR
STARTCHAR iacute
ENCODING 237
SWIDTH 289 0
DWIDTH 4 0
BBX 4 11 0 0
BITMAP
30
c0
00
20
20
20
20
40
40
40
40
ENDCHAR
STARTCHAR icircumflex
ENCODING 238
SWIDTH 289 0
DWIDTH 4 0
BBX 3 11 1 0
BITMAP
40
a0
00
40
40
40
40
80
80
80
80
ENDCHAR
STARTCHAR dcaron
ENCODING 239
SWIDTH 928 0
DWIDTH 13 0
BBX 12 12 1 0
BITMAP
0010
0110
0120
0140
1e00
2200
4200
4200
8400
8c00
9400
6400
ENDCHAR
STARTCHAR dstroke
ENCODING 240
SWIDTH 785 0
DWIDTH 11 0
BBX 10 11 1 0
BITMAP
0100
07c0
0100
1e00
2200
4200
4200
8400
8c00
9400
6400
ENDCHAR
STARTCHAR nacute
ENCODING 241
SWIDTH 620 0
DWIDTH 9 0
BBX 7 11 1 0
BITMAP
06
18
00
4c
52
62
42
84
84
84
84
ENDCHAR
STARTCHAR ncaron
ENCODING 242
SWIDTH 620 0
DWIDTH 9 0
BBX 7 11 1 0
BITMAP
24
18
00
4c
52
62
42
84
84
84
84
ENDCHAR
STARTCHAR oacute
ENCODING 243
SWIDTH 566 0
DWIDTH 9 0
BBX 7 11 1 0
BITMAP
06
18
00
1c
22
42
82
82
84
88
70
ENDCHAR
STARTCHAR ocircumflex
ENCODING 244
SWIDTH 566 0
DWIDTH 9 0
BBX 7 11 1 0
BITMAP
0c
12
00
1c
22
42
82
82
84
88
70
ENDCHAR
STARTCHAR odoubleacute
ENCODING 245
SWIDTH 566 0
DWIDTH 9 0
BBX 8 11 1 0
BITMAP
09
12
00
1c
22
42
82
82
84
88
70
ENDCHAR
STARTCHAR odiaeresis
ENCODING 246
SWIDTH 566 0
DWIDTH 9 0
BBX 7 11 1 0
BITMAP
12
12
00
1c
22
42
82
82
84
88
70
ENDCHAR
STARTCHAR division
ENCODING 247
SWIDTH 633 0
DWIDTH 9 0
BBX 7 7 1 1
BITMAP
08
08
00
fe
00
20
20
ENDCHAR
STARTCHAR rcaron
ENCODING 248
SWIDTH 478 0
DWIDTH 7 0
BBX 6 11 1 0
BITMAP
24
18
00
4c
48
50
60
80
80
80
80
ENDCHAR
STARTCHAR uring
ENCODING 249
SWIDTH 620 0
DWIDTH 9 0
BBX 7 12 1 0
BITMAP
18
24
18
00
42
42
42
42
84
8c
94
64
ENDCHAR
STARTCHAR uacute
ENCODING 250
SWIDTH 620 0
DWIDTH 9 0
BBX 7 11 1 0
BITMAP
06
18
00
42
42
42
42
84
8c
94
64
ENDCHAR
STARTCHAR udoubleacute
ENCODING 251
SWIDTH 620 0
DWIDTH 9 0
BBX 7 11 1 0
BITMAP
12
24
00
42
42
42
42
84
8c
94
64
ENDCHAR
STARTCHAR udiaeresis
ENCODING 252
SWIDTH 620 0
DWIDTH 9 0
BBX 7 11 1 0
BITMAP
24
24
00
42
42
42
42
84
8c
94
64
ENDCHAR
STARTCHAR yacute
ENCODING 253
SWIDTH 548 0
DWIDTH 7 0
BBX 8 13 -1 -2
BITMAP
03
0c
00
21
21
21
22
22
24
28
30
20
c0
ENDCHAR
STARTCHAR tcedilla
ENCODING 254
SWIDTH 383 0
DWIDTH 6 0
BBX 5 12 1 -2
BITMAP
20
20
f8
40
40
40
80
80
80
70
10
60
ENDCHAR
STARTCHAR abovedot
ENCODING 255
SWIDTH 566 0
DWIDTH 9 0
BBX 1 2 5 9
BITMAP
80
80
ENDCHAR
ENDFONT
